<?xml version="1.0" standalone="no"?><!DOCTYPE svg PUBLIC "-//W3C//DTD SVG 1.1//EN" "http://www.w3.org/Graphics/SVG/1.1/DTD/svg11.dtd" ><svg xmlns="http://www.w3.org/2000/svg"><metadata></metadata><defs><font id="Hanyi HYXiaRiTiW Regular v5.00" horiz-adv-x="1000"><font-face font-family="HYXiaRiTiW" font-weight="400" font-stretch="normal" units-per-em="1000" panose-1="0 2 6 0 4 1 1 1 1 1" ascent="907" descent="-249" x-height="1" bbox="28 -100 953 811" underline-thickness="50" underline-position="-249" unicode-range="U+00a5-ff0c" /><missing-glyph horiz-adv-x="1000"  /><glyph glyph-name="" unicode="&#x4ee5;" d="M179 677 q-50 -209 -47 -423 q1 -60 19 -116 q18 -50 61 -79 q37 -21 79 -20 q34 0 67 9 q48 14 93 35 l-32 67 q-46 -23 -96 -34 q-21 -5 -42 -3 q-16 1 -30 9 q-12 8 -20 20 q-9 14 -14 31 q-11 40 -11 83 q-3 204 45 402 l-72 19 ZM643 293 l242 -301 l57 46 l-270 336 q50 143 90 289 l-72 18 q-51 -188 -119 -370 q-60 -161 -136 -315 l65 -33 q81 161 143 330 ZM309 564 q68 -136 125 -277 l66 26 q-59 144 -128 284 l-63 -33 Z" /><glyph glyph-name="" unicode="&#x4f1a;" d="M304 467 l0 -68 l402 4 l0 68 l-402 -4 ZM921 415 q-69 66 -145 125 q-105 82 -214 159 q27 20 55 38 l-41 61 q-260 -175 -494 -383 l49 -54 q176 156 368 294 q109 -77 215 -159 q81 -63 156 -134 l51 53 ZM864 217 l5 68 q-362 27 -724 0 l6 -67 q103 7 207 10 q-25 -33 -46 -69 q-16 -28 -27 -60 q-7 -22 -8 -45 q-1 -21 6 -42 q13 -32 44 -50 q32 -16 69 -19 q19 -2 39 -2 q66 1 130 16 q74 16 145 45 q22 -37 42 -76 l66 33 q-62 119 -141 227 l-59 -43 q27 -38 53 -78 q-72 -27 -148 -42 q-60 -11 -120 -7 q-19 1 -36 8 q-10 4 -15 14 q-4 14 0 28 q8 27 22 52 q34 60 81 112 q205 3 409 -13 Z" /><glyph glyph-name="" unicode="&#x518d;" d="M802 436 q-20 73 -89 107 q-36 17 -75 23 q-49 7 -99 4 q-2 43 -5 86 q164 6 326 -12 l9 71 q-172 20 -344 13 q-209 -7 -415 -39 l12 -71 q170 26 343 35 q2 -44 4 -89 q-112 -15 -220 -50 l-1 25 l-72 -5 l25 -372 q-47 -5 -94 -13 l11 -71 q44 7 88 12 l8 -122 l72 5 l-9 125 q227 24 454 18 q-11 -86 -28 -171 l70 -15 q19 90 30 182 q41 -3 82 -8 l9 71 q-41 6 -83 9 q6 71 5 142 q-1 56 -14 110 ZM254 440 q107 35 218 52 q1 -57 2 -113 q-89 -6 -176 -24 l15 -64 q80 16 161 23 q0 -64 -4 -129 q-99 -5 -198 -15 l-18 270 ZM541 188 q3 65 3 129 q65 1 129 -7 l10 64 q-69 9 -139 8 q-1 58 -2 116 q41 3 83 -3 q31 -5 59 -18 q37 -19 48 -59 q12 -49 12 -99 q1 -66 -5 -131 q-99 4 -198 0 Z" /><glyph glyph-name="" unicode="&#x540c;" d="M668 734 q-44 4 -88 1 q-55 -5 -109 -14 q-136 -25 -269 -62 q-3 31 -7 62 l-71 -8 q39 -370 40 -743 l72 0 q-1 309 -27 616 q135 38 274 64 q49 8 99 13 q38 3 76 0 q68 -10 108 -67 q21 -35 31 -74 q10 -45 10 -91 q1 -235 -54 -463 l69 -17 q58 236 57 480 q-1 63 -17 124 q-16 51 -47 95 q-57 71 -147 84 ZM343 400 q-32 -87 -35 -180 q-1 -37 8 -73 q7 -24 19 -44 q40 -60 111 -67 q29 -4 59 -4 q39 0 78 9 q31 8 58 26 q44 34 56 88 q13 56 -2 112 q-16 53 -60 87 q-16 11 -34 17 q-29 9 -59 12 q-67 5 -133 -11 q1 1 1 3 l-67 25 ZM592 296 q27 -21 35 -54 q7 -36 0 -71 q-9 -40 -47 -55 q-24 -9 -49 -11 q-39 -2 -77 2 q-37 3 -58 33 q-16 30 -16 64 q-1 43 7 86 q53 20 110 21 q29 2 57 -2 q21 -3 38 -13 ZM716 554 q-106 7 -212 0 q-123 -7 -243 -28 l13 -71 q115 20 232 27 q102 7 205 0 l5 72 Z" /><glyph glyph-name="" unicode="&#x540e;" d="M142 639 q15 2 31 4 q-7 -181 -24 -362 q-12 -146 -42 -289 l72 -17 q22 104 34 211 q14 127 22 255 q305 25 610 17 l3 73 q-305 8 -608 -16 q4 68 6 136 q271 29 544 37 l-2 73 q-329 -10 -656 -50 l10 -72 ZM331 383 q-43 -95 -53 -198 q-3 -45 6 -88 q7 -28 21 -54 q21 -37 58 -59 q47 -26 102 -29 q37 -3 75 -4 q56 0 111 10 q33 8 65 21 q35 17 62 46 q24 30 35 66 q19 66 -1 131 q-23 67 -83 103 q-24 13 -51 20 q-44 9 -89 11 q-101 2 -198 -21 q3 7 6 14 l-66 31 ZM691 266 q34 -20 49 -56 q17 -47 3 -96 q-6 -21 -20 -38 q-23 -23 -54 -34 q-38 -12 -78 -16 q-60 -4 -121 1 q-35 2 -66 18 q-23 13 -36 35 q-18 35 -18 75 q0 50 13 98 q45 16 92 24 q51 8 102 9 q45 1 89 -6 q24 -4 45 -14 Z" /><glyph glyph-name="" unicode="&#x5440;" d="M921 397 q-52 -9 -104 -18 q-17 128 -44 255 q78 -3 156 -8 l5 74 q-262 16 -524 12 l2 -74 q142 3 285 -1 q29 -134 47 -270 q-65 -10 -132 -10 q-50 1 -97 19 q-15 7 -21 22 q-5 16 -5 32 q0 26 6 51 q11 51 34 97 l-65 34 q-33 -65 -45 -137 q-4 -26 -3 -53 q1 -26 10 -50 q17 -45 62 -64 q26 -10 54 -16 l-160 -250 l62 -40 l180 282 l0 0 q65 1 129 10 q7 -72 8 -145 q1 -46 -12 -90 q-8 -25 -29 -42 q-13 -7 -27 -9 q-19 -1 -37 2 q-45 8 -86 28 l-30 -67 q39 -18 81 -29 q29 -8 60 -8 q43 -1 79 22 q42 29 58 78 q18 56 16 115 q0 79 -8 157 q54 9 109 19 l-14 72 ZM245 598 q-45 7 -90 -6 q1 4 2 8 l-71 17 q-21 -94 -29 -189 q-3 -42 -2 -85 q2 -40 9 -81 q10 -53 43 -95 q23 -24 54 -34 q30 -8 62 -9 q42 0 78 22 q28 20 44 50 q22 42 27 90 q10 72 1 145 q-7 62 -40 116 q-13 19 -33 32 q-25 15 -55 19 ZM300 296 q-4 -31 -16 -59 q-8 -18 -24 -29 q-16 -10 -36 -10 q-22 0 -43 6 q-19 7 -29 25 q-16 33 -20 70 q-5 48 -2 97 q2 55 10 109 q43 27 94 21 q23 -3 38 -21 q24 -41 29 -88 q7 -61 -1 -121 Z" /><glyph glyph-name="" unicode="&#x554a;" d="M107 174 q25 -13 53 -13 q25 0 47 11 q31 19 49 50 q24 43 29 92 q8 73 -1 145 q-7 49 -29 92 q-27 43 -77 50 q-26 4 -53 -1 q0 1 1 2 l-69 14 q-16 -82 -23 -165 q-6 -75 3 -149 q6 -48 30 -91 q16 -23 40 -37 ZM112 520 q25 16 55 12 q18 -2 27 -16 q19 -39 23 -82 q5 -56 -1 -112 q-4 -31 -17 -59 q-9 -18 -25 -29 q-18 -8 -36 3 q-14 9 -20 25 q-12 33 -14 67 q-6 96 8 191 ZM598 569 q-14 -67 -20 -135 q-6 -62 0 -123 q3 -40 20 -76 q15 -30 46 -42 q20 -7 41 -8 q26 0 48 14 q22 15 34 39 q16 35 20 74 q6 61 -2 121 q-5 39 -22 75 q-22 37 -65 44 q-18 3 -37 0 q1 2 1 5 l-64 12 ZM688 487 q11 -1 17 -10 q14 -32 17 -67 q4 -45 -1 -90 q-2 -22 -9 -42 q-4 -14 -15 -23 q-6 -4 -14 -3 q-10 0 -19 3 q-9 6 -12 16 q-8 23 -9 48 q-4 80 7 159 q17 11 38 9 ZM810 636 q12 -133 11 -267 q0 -119 -19 -237 q-3 -25 -12 -48 q-4 -15 -16 -24 q-6 -3 -13 -2 q-10 1 -20 4 q-26 9 -51 22 l-31 -63 q27 -14 57 -24 q23 -9 48 -9 q23 0 42 9 q26 15 40 40 q20 40 25 84 q19 119 20 240 q1 134 -10 268 q28 -4 55 -11 l15 69 q-88 19 -178 21 q-101 4 -202 -11 l12 -69 q113 16 227 8 ZM315 617 l28 -596 l65 3 l-29 607 q26 5 52 7 q16 1 31 -3 q13 -5 17 -18 q6 -27 -4 -55 q-12 -36 -35 -66 q-12 -17 -21 -35 q-6 -13 -4 -28 q4 -21 23 -33 q21 -15 33 -38 q14 -24 12 -51 q-7 -42 -48 -58 l26 -61 q34 15 57 42 q26 31 30 70 q4 37 -10 72 q-17 41 -52 70 q4 5 8 11 q34 46 48 101 q11 40 0 80 q-15 44 -59 60 q-41 9 -83 3 q-76 -10 -148 -34 l21 -63 q21 7 42 13 Z" /><glyph glyph-name="" unicode="&#x5b66;" d="M899 537 q-11 54 -59 82 q-37 22 -80 29 q39 51 75 103 l-60 42 q-48 -69 -101 -135 q-57 2 -114 -2 l-56 151 l-69 -26 l49 -131 q-79 -8 -158 -22 l-84 133 l-62 -39 l68 -108 q-38 -7 -75 -16 l-7 27 l-68 -19 l52 -188 l68 18 l-26 95 q193 43 391 56 q64 3 129 -2 q48 -4 91 -25 q21 -11 27 -34 q2 -18 -5 -34 q-8 -21 -21 -39 l53 -45 q25 31 37 69 q9 29 5 60 ZM869 156 l2 70 q-154 5 -308 2 q-1 3 -2 5 q65 27 117 74 q23 21 38 49 q9 19 11 40 q0 25 -14 46 q-16 20 -39 32 q-24 10 -49 14 q-44 5 -90 3 q-123 -11 -241 -46 l21 -70 q105 31 213 42 q33 3 66 2 q24 -2 47 -11 q9 -3 13 -10 q-2 -11 -9 -20 q-12 -15 -27 -27 q-39 -30 -84 -50 q-9 19 -19 38 l-64 -35 q20 -38 35 -78 q-160 -5 -319 -17 l6 -70 q167 13 335 18 q6 -25 9 -49 q5 -35 2 -70 q-1 -19 -12 -34 q-8 -4 -17 -4 q-13 0 -26 4 q-36 9 -70 24 l-28 -67 q33 -15 67 -25 q28 -8 56 -9 q34 0 62 19 q28 24 37 60 q5 25 6 50 q-1 31 -4 61 q-3 21 -8 41 q144 3 287 -2 Z" /><glyph glyph-name="" unicode="&#x5c0f;" d="M453 754 q34 -200 52 -401 q8 -114 -1 -227 q-3 -36 -16 -69 q-7 -19 -25 -30 q-13 -5 -26 -4 q-20 2 -38 8 q-49 19 -92 49 l-41 -61 q48 -33 102 -55 q36 -14 74 -15 q28 0 53 12 q40 20 59 62 q19 46 23 96 q10 118 1 235 q-18 207 -52 411 l-73 -11 ZM272 539 q-92 -185 -169 -377 l69 -27 q75 189 165 371 l-65 33 ZM688 506 q43 -78 78 -161 q47 -110 87 -223 l69 25 q-41 116 -90 230 q-36 86 -81 168 l-63 -39 Z" /><glyph glyph-name="" unicode="&#x5e0c;" d="M501 -96 l70 -4 q9 161 5 321 q40 1 81 -3 q37 -3 71 -19 q12 -7 20 -18 q7 -10 7 -23 q-5 -81 -42 -155 l63 -30 q43 86 48 182 q2 55 -40 90 q-22 16 -47 26 q-35 12 -72 16 q-46 5 -92 4 q-1 40 -4 79 l-69 -5 q2 -39 4 -77 q-87 -8 -172 -24 q-2 12 -6 24 l105 110 q231 6 463 0 l1 70 q-197 5 -395 1 l55 58 l-53 51 l-106 -111 q-140 -4 -279 -14 l5 -69 q102 6 204 10 l-195 -205 l53 -50 l84 88 q25 -123 27 -248 l70 0 q-1 109 -19 216 q79 15 160 22 q4 -156 -5 -313 ZM166 506 q172 50 343 105 q165 -52 330 -101 l21 71 q-115 34 -229 69 q96 31 192 62 l-23 70 q-146 -48 -291 -94 q-137 43 -272 90 l-24 -70 q86 -30 174 -58 q-120 -38 -241 -73 l20 -71 Z" /><glyph glyph-name="" unicode="&#x6709;" d="M181 267 q37 57 78 112 q10 -209 33 -418 l69 7 q-7 68 -13 136 q151 -12 302 -14 l0 68 q-154 2 -308 15 q-3 34 -5 69 q157 20 316 21 q3 0 6 0 l1 68 q-165 0 -327 -21 q-3 44 -5 88 q86 25 175 40 q56 9 113 4 q51 -6 81 -47 q14 -22 19 -47 q4 -22 4 -45 q-3 -181 -39 -358 l69 -14 q20 104 31 210 q9 81 9 162 q0 33 -7 65 q-9 38 -31 70 q-21 30 -52 49 q-35 19 -74 25 q-62 6 -123 -4 q-90 -13 -178 -38 q50 68 102 136 q216 7 432 -8 l5 69 q-191 14 -384 10 q32 42 64 84 l-58 45 q-50 -66 -100 -131 q-128 -4 -256 -13 l5 -70 q99 7 197 11 q-39 -52 -94 -125.5 q-55 -73.5 -120 -170.5 l63 -40 Z" /><glyph glyph-name="" unicode="&#x671b;" d="M146 450 q24 -47 75 -62 q33 -9 68 -9 q88 2 167 43 l-36 65 q-45 -23 -95 -32 q-43 -6 -84 4 q-20 5 -30 24 q-12 32 -8 66 q5 52 22 101 q120 9 240 -5 l7 73 q-72 8 -146 9 l-29 84 l-69 -25 l21 -61 q-79 -5 -158 -14 l8 -73 q23 3 47 5 q-17 -56 -17 -114 q0 -41 17 -79 ZM203 33 l6 -74 q300 20 599 -11 l8 73 q-142 15 -285 18 q5 47 5 93 q103 0 206 -5 l4 73 q-106 6 -211 6 q-2 35 -6 70 q118 0 237 -5 l3 73 q-132 6 -263 5 q-145 -3 -289 -12 l4 -73 q117 7 234 10 q4 -35 6 -70 q-93 -3 -185 -9 l4 -74 q91 6 183 10 q-1 -46 -6 -91 q-127 1 -254 -7 ZM917 610 q3 57 -25 108 q-32 50 -91 59 q-48 5 -95 -3 q-72 -11 -141 -28 q-1 7 -2 15 l-69 -8 q19 -180 20 -361 l70 0 q0 41 -2 83 q111 -19 224 -26 l4 60 q-116 7 -230 27 q-1 20 -2 39 l244 11 l-3 60 l-245 -11 q-1 20 -3 40 q71 19 143 30 q37 6 75 3 q27 -4 42 -26 q9 -14 12 -29 q4 -21 4 -41 q-7 -112 -36 -221 l68 -17 q31 116 38 236 Z" /><glyph glyph-name="" unicode="&#x671f;" d="M831 687 q-37 9 -75 4 q-60 -7 -118 -26 q-1 10 -1 20 l-70 -4 q17 -343 38 -687 l70 4 q-6 91 -11 181 q74 -14 149 -16 l1 68 q-78 2 -154 18 q-4 70 -8 140 l176 11 l-4 68 l-175 -11 q-4 68 -8 136 q50 16 101 26 q22 3 44 4 q13 0 25 -3 q17 -8 25 -25 q10 -24 15 -49 q12 -80 9 -161 q-1 -89 -10 -176 q-13 -125 -35 -249 l69 -12 q22 127 36 255 q9 90 10 181 q1 59 -3 119 q-3 48 -17 94 q-11 36 -36 64 q-18 18 -43 26 ZM553 172 q-42 0 -83 -1 q14 215 13 431 q29 -2 58 -4 l6 69 q-32 3 -64 5 q0 56 -1 111 l-73 -1 q1 -53 1 -107 q-108 3 -215 -3 q-2 46 -2 92 l-74 -1 q1 -48 2 -95 q-34 -3 -68 -5 l6 -70 q32 3 64 5 q5 -116 14 -232 q8 -107 23 -212 q-43 -4 -86 -8 l8 -70 q48 5 97 9 l-54 -110 l66 -32 l72 148 q50 4 99 6 q49 -81 85 -169 l68 28 q-31 74 -70 144 q54 2 108 2 l0 70 ZM219 276 q77 -14 155 -19 l6 68 q-85 5 -168 22 q-3 38 -6 76 l159 17 l-7 68 l-156 -17 q-3 55 -5 111 q106 6 213 3 q0 -219 -14 -436 q-81 -4 -162 -10 q-9 58 -15 117 Z" /><glyph glyph-name="" unicode="&#x7684;" d="M479 162 q11 92 -6 182 q-7 34 -18 66 q-13 31 -32 58 q-13 17 -31 29 q-26 15 -56 21 q-64 12 -127 -5 q1 2 1 4 l-67 17 q-18 -71 -28 -144 q-12 -78 -12 -157 q1 -58 14 -114 q9 -33 26 -63 q31 -51 89 -65 q32 -8 65 -8 q57 -1 104 30 q35 26 54 65 q19 40 24 84 ZM361 70 q-21 -13 -45 -16 q-35 -3 -69 5 q-29 7 -45 33 q-12 22 -18 46 q-8 32 -9 65 q25 -2 51 -2 q67 0 132 8 l-8 73 q-50 -6 -101 -7 q-37 -2 -75 2 q4 78 18 156 q50 22 105 20 q25 -1 47 -10 q14 -6 23 -17 q14 -19 23 -41 q12 -34 18 -69 q10 -72 2 -145 q-4 -34 -19 -65 q-11 -21 -30 -36 ZM180 570 q97 41 196 75 l-25 69 q-101 -35 -200 -76 l29 -68 ZM769 154 q-72 100 -134 207 l-64 -36 q64 -110 138 -214 l60 43 ZM789 607 q-41 6 -83 2 q-52 -4 -104 -16 l30 104 l-71 20 l-86 -305 l70 -20 l34 118 q56 17 114 24 q42 5 84 0 q20 -3 35 -17 q14 -13 23 -31 q10 -23 15 -48 q6 -29 7 -58 q3 -70 -8 -138 q-21 -131 -82 -248 l65 -35 q75 145 95 308 q9 78 1 155 q-7 50 -27 96 q-16 33 -43 57 q-30 25 -69 32 Z" /><glyph glyph-name="" unicode="&#x771f;" d="M863 36 q-42 6 -83.5 10 q-41.5 4 -83.5 6 q19 -18 36 -35 q17 -17 30 -30.5 q13 -13.5 20.5 -22 q7.5 -8.5 8.5 -9.5 l-52 -46 q0 0 -13.5 14.5 q-13.5 14.5 -35.5 36.5 q-22 22 -49.5 47 q-27.5 25 -55.5 47 q-44 0 -85.5 -1.5 q-41.5 -1.5 -80.5 -3.5 l-110 -148 l-56 42 l74 99 q-79 -7 -127 -14 q-48 -7 -50 -7 l-12 69 q5 1 34 5.5 q29 4.5 78 9.5 q0 85 -4 167 q-4 82 -9 146 q-5 64 -9 103.5 q-4 39.5 -4 40.5 l70 8 q0 -2 3 -33 q21 6 65.5 16.5 q44.5 10.5 98.5 19.5 q-1 13 -1.5 31 q-0.5 18 -1.5 38 q-66 -3 -124.5 -9 q-58.5 -6 -102 -12 q-43.5 -6 -69.5 -10 q-26 -4 -27 -4 l-12 69 q4 1 31.5 5.5 q27.5 4.5 72 10 q44.5 5.5 103.5 11.5 q59 6 126 9 q-2 33 -2.5 56.5 q-0.5 23.5 -0.5 24.5 l72 2 q0 -2 0.5 -25 q0.5 -23 2.5 -55 q83 2 168.5 -3 q85.5 -5 163.5 -21 l-14 -69 q-73 15 -154.5 19.5 q-81.5 4.5 -161.5 2.5 q1 -17 1.5 -33 q0.5 -16 1.5 -29 q30 2 59 2.5 q29 0.5 54 -2.5 q78 -11 120 -60.5 q42 -49.5 43 -129.5 q0 -29 -3.5 -63 q-3.5 -34 -9 -70 q-5.5 -36 -12.5 -72.5 q-7 -36.5 -14 -69.5 q53 -5 103 -12 l-10 -69 ZM320 112 q78 8 175.5 11.5 q97.5 3.5 203.5 -1.5 q20 89 30 157 q10 68 10 112 q0 107 -102 121 q-42 6 -97 0.5 q-55 -5.5 -105.5 -15.5 q-50.5 -10 -87.5 -19.5 q-37 -9.5 -44 -11.5 q1 -17 3 -36 q18 3 56 9 q38 6 86 10.5 q48 4.5 101.5 5.5 q53.5 1 101.5 -6 l-8 -59 q-47 6 -100.5 4.5 q-53.5 -1.5 -101 -6 q-47.5 -4.5 -83.5 -10.5 q-36 -6 -48 -9 q1 -8 1.5 -16.5 q0.5 -8.5 1.5 -17.5 q21 1 62.5 4.5 q41.5 3.5 90.5 6.5 q49 3 99 4.5 q50 1.5 86 0.5 l-2 -60 q-35 1 -84.5 -0.5 q-49.5 -1.5 -98 -4.5 q-48.5 -3 -90 -6.5 q-41.5 -3.5 -60.5 -4.5 q1 -13 1 -26 q0 -13 1 -27 q22 2 63 4.5 q41 2.5 88.5 4.5 q47.5 2 95 3 q47.5 1 82.5 -1 l-3 -60 q-34 2 -81 1 q-47 -1 -94 -3 q-47 -2 -87.5 -5 q-40.5 -3 -61.5 -4 l0 -50 Z" /><glyph glyph-name="" unicode="&#x80a5;" d="M556 1 q-39 20 -63 58 q-24 38 -37 88 q-13 50 -16 107.5 q-3 57.5 -0.5 115.5 q2.5 58 9.5 113.5 q7 55.5 14.5 101 q7.5 45.5 14.5 78 q7 32.5 10 43.5 l72 -17 q-2 -5 -3 -10.5 q-1 -5.5 -2 -10.5 q30 8 67 15 q37 7 75.5 9 q38.5 2 76 -3 q37.5 -5 68.5 -21 q63 -31 81 -100 q9 -35 13 -80 q4 -45 -0.5 -88.5 q-4.5 -43.5 -18.5 -79.5 q-14 -36 -40 -54 q-29 -19 -69.5 -27 q-40.5 -8 -86.5 -8 q-56 0 -111 9.5 q-55 9.5 -97 20.5 q5 -72 22.5 -124 q17.5 -52 54.5 -71 q33 -17 70.5 -22 q37.5 -5 74 -2 q36.5 3 70 11.5 q33.5 8.5 59 17.5 q25.5 9 40.5 16 q15 7 16 7 l33 -66 q-3 -1 -24 -10.5 q-21 -9.5 -55.5 -20.5 q-34.5 -11 -78 -20 q-43.5 -9 -91.5 -9 q-37 0 -75 7.5 q-38 7.5 -73 25.5 ZM852 548 q-5 19 -15.5 32.5 q-10.5 13.5 -27.5 21.5 q-16 8 -36 12 q-20 4 -42 5 q2 -26 3.5 -60.5 q1.5 -34.5 2 -75.5 q0.5 -41 -0.5 -86.5 q-1 -45.5 -5 -91.5 q32 0 60 5.5 q28 5.5 45 16.5 q9 6 16 28.5 q7 22.5 10 54 q3 31.5 1 68 q-2 36.5 -11 70.5 ZM658 614 q-33 -5 -64 -12.5 q-31 -7.5 -56 -15.5 q-11 -60 -17.5 -123.5 q-6.5 -63.5 -8.5 -124.5 q26 -9 65 -17 q39 -8 81 -13 q4 45 5 89 q1 44 0.5 84 q-0.5 40 -2.5 74 q-2 34 -3 59 ZM393 556 q8 -52 9.5 -113.5 q1.5 -61.5 -0.5 -123.5 q-2 -62 -7 -121 q-5 -59 -10 -105 q-5 -46 -9 -75.5 q-4 -29.5 -5 -33.5 l-72 11 q0 1 3.5 28.5 q3.5 27.5 8.5 72 q5 44.5 10 102 q5 57.5 7 118.5 q2 61 0.5 120.5 q-1.5 59.5 -8.5 108.5 q-3 20 -8.5 33 q-5.5 13 -11 20.5 q-5.5 7.5 -10.5 10.5 q-5 3 -8 4 q-15 7 -33.5 6.5 q-18.5 -0.5 -37 -5 q-18.5 -4.5 -35 -11 q-16.5 -6.5 -26.5 -11.5 q-6 -56 -9 -109 l136 19 l10 -72 l-149 -22 q0 -26 0 -49.5 q0 -23.5 2 -45.5 q40 -13 74.5 -18 q34.5 -5 77.5 -10 l-8 -73 q-38 4 -70.5 8.5 q-32.5 4.5 -68.5 13.5 q8 -69 16.5 -104 q8.5 -35 8.5 -36 l-70 -23 q-1 3 -11.5 44 q-10.5 41 -17.5 119.5 q-7 78.5 -5.5 194 q1.5 115.5 24.5 266.5 l72 -11 q0 -5 -1 -7 q16 6 34.5 10.5 q18.5 4.5 38.5 6 q20 1.5 40.5 -1.5 q20.5 -3 39.5 -12 q64 -31 79 -124 Z" /><glyph glyph-name="" unicode="&#x80fd;" d="M565 737 q-24 -90 -29 -183 q-2 -38 5 -75 q7 -29 23 -54 q21 -30 55 -43 q41 -15 85 -14 q97 3 188 35 l-24 69 q-73 -25 -151 -30 q-32 -2 -64 5 q-17 5 -29 19 q-9 14 -12 30 q-4 23 -4 46 q132 20 264 32 l-6 73 q-126 -12 -251 -30 q8 51 21 102 l-71 18 ZM485 330 q-17 48 -64 69 q-46 19 -96 16 q-70 -3 -137 -25 q0 8 1 16 l-73 5 q-9 -117 -1 -233 q7 -105 37 -205 l69 25 q-11 35 -17 71 q42 -2 85 -2 q52 0 104 2 l-3 73 q-99 -5 -198 1 q-2 21 -4 42 l192 22 l-9 73 l-186 -21 q-1 26 -1 53 q60 22 123 29 q23 2 46 1 q19 -2 38 -9 q18 -8 25 -27 q7 -20 9 -41 q3 -38 1 -76 q-6 -106 -30 -211 l70 -19 q26 110 33 223 q2 47 -2 95 q-4 27 -12 53 ZM201 783 q-59 -74 -96 -162 q-12 -33 -15 -68 q0 -19 7 -38 q15 -29 46 -42 q42 -17 87 -16 q93 3 180 33 q10 -23 20 -47 l67 29 q-45 106 -84 213 l-68 -25 q19 -51 38 -102 q-63 -21 -130 -26 q-29 -2 -58 1 q-9 2 -18 4 q-9 3 -14 9 q-2 16 4 31 q9 27 21 52 q30 58 70 109 l-57 45 ZM563 344 q-14 -56 -23 -114 q-7 -45 -7 -90 q1 -27 6 -54 q7 -30 23 -55 q21 -29 55 -42 q41 -15 85 -14 q96 3 188 35 l-24 69 q-73 -25 -151 -30 q-32 -2 -64 5 q-17 5 -29 18 q-9 14 -12 31 q-4 22 -4 45 q132 21 264 33 l-6 73 q-126 -12 -251 -31 q8 52 21 103 l-71 18 Z" /><glyph glyph-name="" unicode="&#x89c1;" d="M265 -11 l70 -24 l188 547 l-70 24 l-188 -547 ZM282 227 q-30 93 -40 189 q-12 110 -9 220 q89 20 180 31 q73 8 148 6 q47 -1 92 -12 q34 -10 61 -33 q18 -24 23 -54 q5 -38 3 -76 q-5 -59 -18 -118 q-16 -69 -41 -136 l69 -26 q26 70 44 143 q17 75 21 153 q1 55 -14 108 q-11 30 -32 56 q-36 35 -85 50 q-56 16 -115 19 q-83 3 -166 -7 q-83 -10 -165 -28 q1 14 2 27 l-73 7 q-15 -144 -4 -289 q5 -63 16 -125 q11 -67 33 -132 l70 27 ZM576 55 q-11 14 -14 30 q-5 23 -5 47 q0 80 12 160 l-74 9 q-6 -50 -10 -100 q-4 -44 -1 -88 q2 -37 14 -71 q9 -22 25 -39 q18 -17 42 -25 q30 -9 61 -8 q49 1 96 12 q56 13 110 33 l-26 69 q-72 -27 -148 -37 q-29 -4 -58 -2 q-14 2 -24 10 Z" /><glyph glyph-name="" unicode="&#x8fd8;" d="M707 642 q102 -1 204 -13 l9 73 q-129 15 -260 13 q-155 -1 -309 -19 l10 -73 q128 15 256 18 q-66 -92 -142 -177 q-66 -73 -141 -138 l47 -56 q103 88 190 191 q6 -103 7 -206 q1 -74 -4 -147 l73 -5 q8 138 2 277 q121 -50 227 -126 l44 59 q-128 92 -275 148 q-3 42 -6 85 q36 47 68 96 ZM86 667 q79 -34 149 -83 l44 59 q-77 54 -163 92 l-30 -68 ZM225 436 q9 -9 13 -21 q5 -15 5 -31 q-2 -39 -15 -77 q-23 -75 -53 -148 q-24 -61 -57 -118 l63 -39 q17 28 31 58 l-1 -5 q316 -25 618 -120 l23 70 q-299 94 -611 122 q32 78 57 158 q20 58 17 118 q-3 54 -43 89 q-18 14 -39 22 q-29 9 -60 9 q-66 -4 -124 -34 l34 -65 q39 20 83 25 q19 1 38 -3 q11 -3 21 -10 Z" /><glyph glyph-name="" unicode="&#xff0c;" d="M293 -60 l-51 41 q9 12 17.5 24 q8.5 12 14.5 23 q6 11 8.5 19.5 q2.5 8.5 -0.5 12.5 q-4 9 -22 3 q-18 -6 -23 -8 l-29 87 q17 8 33.5 15 q16.5 7 33.5 9 q32 4 51 -6.5 q19 -10.5 27 -24.5 q9 -15 11.5 -33 q2.5 -18 -4.5 -45 q-8 -26 -26.5 -58.5 q-18.5 -32.5 -40.5 -58.5 Z" /></font>
</defs>
</svg>
